<svg version="1.0" xmlns="http://www.w3.org/2000/svg" viewBox="0 0 48 48"><linearGradient id="a" gradientUnits="userSpaceOnUse" x1="26.568" y1="48.5129" x2="18.3338" y2="1.8147"><stop offset="0" style="stop-color:#44B5E4"/><stop offset="1" style="stop-color:#80D8FF"/></linearGradient><path fill="url(#a)" d="M45.3,33.5c-3.6-2.1-7.5-3.7-11.6-4.6c5.5-2.8,9.4-9.2,10.2-17.8c0-0.2-0.1-0.5-0.3-0.4c-11.8,0.9-17.7,10.2-18.6,13.6c-0.4-6-6-19.7-21.1-19.9c-0.2,0-0.3,0.2-0.3,0.4c0.2,9.4,6.1,20,13.4,24c-5.1,1-9.9,3.1-14.3,5.9c-0.5,0.3-0.8,0.8-0.8,1.4l0,8.1c0,0.6,0.5,1.1,1.1,1.1H45c0.6,0,1.1-0.5,1.1-1.1v-9.2C46.1,34.4,45.8,33.8,45.3,33.5z"/></svg>