<svg version="1.1" xmlns="http://www.w3.org/2000/svg" viewBox="0 0 160 160"><rect x="-66" y="-12" fill="#F7F7F7" width="518" height="185"/><g><circle fill="#C9C9C9" cx="78.6" cy="101" r="40.5"/><circle fill="#FFFFFF" cx="78.6" cy="101" r="33.8"/><path fill="#B7B7B7" d="M54,39c-1.9-4.1,50.2-4,49,0c-1,3.6-12,13.7-17.2,15.2C80.4,55.9,76,55.8,71,54S55.9,43.1,54,39z"/><circle fill="#C9C9C9" cx="78.6" cy="101" r="31.4"/><g><rect x="66" y="12" fill="#D8D8D8" width="3" height="73"/><rect x="88" y="12" fill="#D8D8D8" width="3" height="73"/></g><path fill="#E5E5E5" d="M72,129.7c0,0.5-0.8,1.3-1.3,1.3h-4.4c-0.5,0-1.3-0.9-1.3-1.3V113h7V129.7z"/><g><circle fill="#FFFFFF" cx="78.6" cy="101" r="17.2"/><rect x="65" y="83" fill="#FFFFFF" width="5" height="8"/><rect x="87" y="83" fill="#FFFFFF" width="5" height="8"/><rect x="64" y="108" fill="#FFFFFF" width="9" height="14"/></g><circle fill="#D8D8D8" cx="78.6" cy="101" r="12.8"/><g><rect x="64" y="69" fill="#AAAAAA" width="29" height="4"/><rect x="64" y="57" fill="#AAAAAA" width="29" height="4"/></g><path fill="#BFBFBF" d="M84,71.5c0,3-2.5,5.5-5.5,5.5l0,0c-3,0-5.5-2.5-5.5-5.5v-21c0-3,2.5-5.5,5.5-5.5c3,0,5.5,2.5,5.5,5.5V71.5z"/><circle fill="#FFFFFF" cx="78.5" cy="50.4" r="4"/><circle fill="#FFFFFF" cx="78.5" cy="71.4" r="4"/><path style="fill:none;stroke:#E5E5E5;stroke-width:1.5;stroke-miterlimit:10" d="M68.5,128.1c-2.7,26.9,30.2,22.9,47.9,18.1c41.6-11.5,80.2-29.2,133.3-29.2c36.2,0,58.1,10.6,88,19.2c18.5,5.3,69.6,19.3,132.5-6.3"/></g></svg>