<svg version="1.1" xmlns="http://www.w3.org/2000/svg" viewBox="0 0 1024 1024"><linearGradient id="a" gradientUnits="userSpaceOnUse" x1="512" y1="1024" x2="512" y2="-2.298657e-08"><stop offset="0" style="stop-color:#FFFFFF"/><stop offset="1" style="stop-color:#E5F2C2"/></linearGradient><linearGradient id="b" gradientUnits="userSpaceOnUse" x1="-0.5" y1="512" x2="1024.5" y2="512"><stop offset="0" style="stop-color:#FFFFFF"/><stop offset="1" style="stop-color:#FFFDED"/></linearGradient><rect style="fill:url(#a);stroke:url(#b);stroke-miterlimit:10" width="1024" height="1024"/><g><linearGradient id="c" gradientUnits="userSpaceOnUse" x1="925.0079" y1="1356.3818" x2="100.8807" y2="532.2546"><stop offset="1.658163e-02" style="stop-color:#70E73A"/><stop offset="1" style="stop-color:#AEFD59"/></linearGradient><path fill="url(#c)" d="M-224.4,1039l9.2-21c34-77.5,80.1-148.8,136.9-211.9c53.6-59.4,115.4-110.2,184-150.9c-7-17.6-10.7-36.5-10.7-55.5c0-82,66.7-148.8,148.8-148.8c34.2,0,67.6,11.9,94,33.5c22.3,18.2,38.9,42.7,47.7,69.9c40.7-6.4,82.2-9.6,123.5-9.6c46.5,0,93,4.1,138.5,12.1c18.7-62.2,76.4-105.9,142.5-105.9c82,0,148.8,66.7,148.8,148.8c0,21.9-4.8,43.4-14,63.1c65.6,40.6,124.8,90.6,176.1,148.5c54.8,61.8,99.3,131.4,132.3,206.7l9.2,21H-224.4z"/><path fill="#260A01" d="M790,465.9c73.9,0,133.8,59.9,133.8,133.8c0,25.1-6.9,48.5-18.9,68.6c138.6,82.5,249.3,206.9,314.5,355.8H-201.4C-134.3,870.9-19.1,743.6,125,661.3c-9.6-18.4-15-39.4-15-61.6c0-73.9,59.9-133.8,133.8-133.8c64.1,0,117.7,45.2,130.8,105.4c43.7-7.6,88.6-11.6,134.5-11.6c51.2,0,101.2,5,149.7,14.4C670.6,512.5,724.9,465.9,790,465.9 M790,435.9c-38.3,0-75.5,13.5-104.8,38c-21.3,17.7-37.6,40.6-47.6,66c-42.3-6.8-85.4-10.2-128.5-10.2c-38,0-76.1,2.7-113.6,8c-10.3-25.1-26.8-47.5-48.1-64.9C333,461.1,317,452,299.7,445.7c-17.9-6.5-36.7-9.8-55.9-9.8c-22.1,0-43.5,4.3-63.8,12.9c-19.5,8.3-37,20.1-52,35.1c-15,15-26.8,32.5-35.1,52C84.3,556.1,80,577.6,80,599.7c0,16.6,2.6,33.2,7.5,49C21.8,689-37.6,738.5-89.4,796c-58,64.3-104.9,137-139.5,215.9l-18.4,42h45.9h1420.9h45.9l-18.4-42c-33.7-76.8-79-147.6-134.8-210.6C1062.7,745.5,1006,697,943.5,656.8c6.8-18.2,10.3-37.6,10.3-57.2c0-22.1-4.3-43.5-12.9-63.8c-8.3-19.5-20.1-37-35.1-52c-15-15-32.5-26.8-52-35.1C833.5,440.2,812.1,435.9,790,435.9L790,435.9z"/></g><g><g><path fill="#FFFFFF" d="M830,1491.5c3.2,0,3.2-5,0-5C826.8,1486.5,826.8,1491.5,830,1491.5L830,1491.5z"/></g></g><g><circle fill="#260A01" cx="243.8" cy="599.7" r="104.6"/><circle fill="#FFFFFF" cx="206.6" cy="554.9" r="29.4"/><path fill="#FFFFFF" d="M305,565.3c1.1,5.6,1.7,11.4,1.6,17.3c-0.4,46.6-39.1,84.3-85.6,83.6c-0.2,0-0.5,0-0.7,0c-2.5-0.1-3.2,3.5-0.8,4.3c8.4,3,17.4,4.5,26.9,4.2c39.6-1.1,71.6-33.5,72.3-73c0.2-13.8-3.3-26.8-9.6-37.9C307.9,561.6,304.5,562.8,305,565.3z"/></g><g><circle fill="#260A01" cx="790" cy="599.7" r="104.6"/><circle fill="#FFFFFF" cx="752.9" cy="554.9" r="29.4"/><path fill="#FFFFFF" d="M850.2,566.8c1.1,5.4,1.6,11.1,1.6,16.8c-0.4,45.2-37.9,81.9-83.2,81.3c-0.2,0-0.5,0-0.7,0c-2.5-0.1-3.1,3.4-0.8,4.2c8.1,2.9,16.9,4.3,26.1,4.1c38.4-1,69.6-32.5,70.3-71c0.2-13.4-3.2-26-9.3-36.8C853,563.2,849.7,564.4,850.2,566.8z"/></g><polyline style="fill:none;stroke:#260A01;stroke-width:20;stroke-linecap:round;stroke-linejoin:round;stroke-miterlimit:10" points="354.6,929.1 509,975.6 656.2,933.1 "/></svg>