<svg version="1.1" xmlns="http://www.w3.org/2000/svg" viewBox="0 0 168 168"><linearGradient id="a" gradientUnits="userSpaceOnUse" x1="85.6326" y1="9.269395e-02" x2="84.5645" y2="128.2597"><stop offset="0" style="stop-color:#CFEAF5"/><stop offset="1" style="stop-color:#AEDDF7"/></linearGradient><rect x="-10.9" y="-22.2" fill="url(#a)" width="191.9" height="197.6"/><path fill="#C9CACA" d="M112,54.5c0,0-4.9-19.5-14.8-23.2c-11.9-4.5-29.3-5.5-29.3-5.5l14.9-6.9c0,0,32.4,4.9,36.5,23.5l1.5,9.2L112,54.5z"/><path style="fill:none;stroke:#0D5E32;stroke-width:5;stroke-linecap:round;stroke-linejoin:round;stroke-miterlimit:10" d="M109,52.5c0,0,0-5.5-3.2-11.2c-9.1-16.1-27.2-18.7-45-11.3c0,0,11.1-13.9,23.9-11.8c16,2.6,25.5,9.1,30.8,17.1c5.2,8,4.6,16.5,4.6,16.5"/><path fill="#003B17" d="M141.7,65.9c-0.6-0.5-1.3-0.9-2.1-1.1c-2.2-0.5-4.3,0.4-5.5,2c2.5,2.3,4.7,4.7,6.7,7.1c0.1,0.1,0.1,0.2,0.2,0.3c1.2-0.7,2.1-1.8,2.5-3.2C144,69.1,143.2,67.2,141.7,65.9z"/><linearGradient id="b" gradientUnits="userSpaceOnUse" x1="128.7946" y1="42.857" x2="57.8257" y2="65.8469" gradientTransform="matrix(0.9992 -3.967662e-02 3.967662e-02 0.9992 -3.3321 82.4089)"><stop offset="0" style="stop-color:#82C02B"/><stop offset="1" style="stop-color:#269B42"/></linearGradient><path fill="url(#b)" d="M72.4,142.1c-0.9-0.2-1.7-0.4-2.6-0.6c-22.8-5.6-53.1-27-67.2-37.7c-5,7.4-9.2,14.3-12.6,20c-0.8,1.4-1.6,2.7-2.4,3.9c-2.4,3.8-4.7,13.7-3.3,17.8c4.1,11.7,23.6,23.2,41.1,29.5c16.1,5.7,65.2,23.2,80.6,15c2.2-1.2,3.5-2.7,4-4.9c3.8-14.8,3.9-34.1,2.6-40C105,146.9,91.9,145.9,72.4,142.1z"/><path fill="url(#b)" d="M95.6,47c-2.5-1.8-5.4-3.2-8.7-4c-6.1-1.5-11.6,1-15.4,3.5c-1.5,1-8.2,3.8-9.1,4.6c0.4,0.8,1,1.3,1.2,2.1c1.1,3,1.3,7.8,1.2,8.1s-0.2,1-0.3,1.2C61.5,75,54.7,79.2,41.8,79.2c-5.8,0-8.6-4.8-12.8-7.9c-2.2,2.1-5.5,6-7.7,8.3c25.8,28.6,41.5,36.9,59.2,41c19.4,4.6,35.5,2.7,41.6,1.9c3.6-0.4,6.6-5.7,8.3-9.8c-1.6-0.7-3.1-1.4-4-1.5c-3.5-0.6-39.4-7.4-41-7.7c-2.4-0.5-4.5-2.1-5.6-4.3c-1.1-2.1-1.1-4.5-0.2-6.5c0.8-1.8,3-4.8,8.8-3.9c1.3,0.2,2.2,1.4,2,2.7c-0.2,1.3-1.4,2.2-2.7,2c-3-0.5-3.5,0.6-3.7,1.1c-0.5,1.1-0.1,2,0.1,2.5c0.5,0.9,1.3,1.5,2.3,1.8c0.3,0.1,37.4,7.1,40.8,7.7c1.8,0.3,3.9,1.3,6.2,2.4c2.6,1.2,5.9,2.7,7.7,2.6c1.6-0.1,3.2-0.6,4.1-4.5c0.9-3.8,1-7.9,0.6-12.1c-1-8.8-8.3-19.4-19.1-28c-0.6-0.5-1.2-1-1.9-1.5c-0.6-0.5-1.3-1-1.9-1.4c-0.5-0.4-1-0.7-1.5-1.1c-4.5-3-9.2-5.5-13.9-7.4L95.6,47z M127.8,94.4c-1.4,1.6-4.3,1.2-6.5-0.7c-2.2-2-2.9-4.8-1.5-6.4c1.4-1.6,4.3-1.2,6.5,0.7C128.5,90,129.2,92.9,127.8,94.4z M143.2,96.4c-1.2,1.2-3.5,0.7-5.2-1c-1.7-1.7-2-4.1-0.8-5.2s3.5-0.7,5.2,1C144.1,92.9,144.4,95.2,143.2,96.4z"/><linearGradient id="c" gradientUnits="userSpaceOnUse" x1="119.4749" y1="-217.9747" x2="110.5748" y2="-150.164" gradientTransform="matrix(0.9715 0.237 -0.237 0.9715 -66.3779 294.4119)"><stop offset="0" style="stop-color:#FFF465"/><stop offset="1" style="stop-color:#EDC000"/></linearGradient><path fill="url(#c)" d="M85.5,103.4c0,0-17.9,1.4-28.2,21.7s-19.7,55.6-19.7,55.6s43.8,21.3,63,13.3c19.1-8,15.5-33.3,15.5-33.3l1.5-32.9c0,0,9.9-3.5,12.3-8.7c2.5-5.1,2.7-7.5,2.7-7.5L85.5,103.4z"/><path fill="#EFEFEF" d="M132.7,54.7c-0.6-0.3-1.2-0.5-1.7-0.6c-0.8-0.3-1.7-0.4-2.5-0.5c-0.8-0.1-1.7-0.2-2.5-0.2c-3.1,0.1-5.7,1.1-7.7,2c1.9,1.1,3.8,2.2,5.7,3.5c0.5,0.4,1,0.7,1.5,1.1c0.7,0.5,1.3,1,2,1.4c0.7,0.5,1.3,1,1.9,1.5c1.6,1.3,3.2,2.6,4.6,4c1.2-1.7,3.3-2.6,5.5-2c0.8,0.2,1.5,0.6,2.1,1.1C141.3,61.5,138.8,57.4,132.7,54.7z"/><ellipse transform="matrix(0.7496 0.6619 -0.6619 0.7496 91.1702 -59.1734)" fill="#005418" cx="123.8" cy="90.9" rx="5.4" ry="3.8"/><path style="fill:none;stroke:#0D5E32;stroke-width:5;stroke-linecap:round;stroke-linejoin:round;stroke-miterlimit:10" d="M40,91.6c0,0-9.5,9.3-23.3,31.9"/><path fill="#FFFFFF" d="M117.3,140"/><path style="fill:none;stroke:#0D5E32;stroke-width:5;stroke-linecap:round;stroke-linejoin:round;stroke-miterlimit:10" d="M42.3,73.9c0,0-22.3,25.4-36.2,48"/><path style="fill:none;stroke:#0D5E32;stroke-width:5;stroke-linecap:round;stroke-linejoin:round;stroke-miterlimit:10" d="M2.7,127.1c-0.8,1.6-2.6,4.1-3.3,5.6"/><linearGradient id="d" gradientUnits="userSpaceOnUse" x1="55.641" y1="-205.661" x2="112.2211" y2="-203.8743" gradientTransform="matrix(0.9715 0.237 -0.237 0.9715 -66.3779 294.4119)"><stop offset="0" style="stop-color:#ED6A00"/><stop offset="1" style="stop-color:#E6823B"/></linearGradient><path fill="url(#d)" d="M117.6,127.8c-8.2,0.7-22,1.2-38.1-2.6c-0.3-0.1-0.5-0.1-0.8-0.2c-17.8-4.3-34.5-13.2-60.5-41.9c-4.7,5.4-9,11.1-12.9,16.7c14.2,10.8,45.8,33.3,68,37.5c19.1,3.7,32.1,4.7,38.6,2.9c1.4-0.4,2.5-0.9,3.3-1.5c0.7-0.5,1.2-1.2,1.5-1.9C118.1,133.4,117.9,130,117.6,127.8z"/><path fill="#005418" d="M143.3,96.4c1.2-1.2,0.9-3.5-0.8-5.3c-1.7-1.7-4-2.2-5.2-1c-1.2,1.2-0.9,3.5,0.8,5.3C139.7,97.2,142,97.6,143.3,96.4z"/><linearGradient id="e" gradientUnits="userSpaceOnUse" x1="139.5008" y1="56.5085" x2="109.6646" y2="56.5085"><stop offset="0" style="stop-color:#82C02B"/><stop offset="1" style="stop-color:#269B42"/></linearGradient><path fill="url(#e)" d="M116,53.8c0,0,13.9-8.3,23.4,5c0,0-6.2-3.6-12.2,2.9C122.3,59.4,116,53.8,116,53.8z"/><path fill="#0D5E32" d="M63.2,52.3c3.1-2.5,6.8-4.9,8.3-5.8c3.8-2.5,9.4-4.9,15.4-3.5c3.3,0.8,6.2,2.2,8.7,4l9.4,7.3c4.8,1.9,11.8,5.5,16.3,8.5c0.5,0.4,1,0.7,1.5,1.1c0.7,0.5,1.3,0.9,1.9,1.4c0.6,0.5,1.3,1,1.9,1.5c10.8,8.7,18.1,19.2,19.1,28c0.5,4.2,0.3,8.3-0.6,12.1c-0.9,3.8-2.5,4.4-4.1,4.5c-1.8,0.1-5-1.4-7.7-2.6c-2.3-1.1-4.5-2.1-6.2-2.4c-3.5-0.6-40.5-7.7-40.8-7.7c-1-0.2-1.8-0.9-2.3-1.8c-0.2-0.5-0.6-1.4-0.1-2.5c0.2-0.4,0.7-1.5,3.7-1.1c1.3,0.2,2.5-0.7,2.7-2c0.2-1.3-0.7-2.5-2-2.7c-5.8-0.9-8,2-8.8,3.9c-0.9,2.1-0.8,4.5,0.2,6.5c1.1,2.2,3.1,3.7,5.6,4.3c1.5,0.3,37.5,7.1,41,7.7c0.9,0.2,2.5,0.8,4,1.5c-1.7,4.1-4.8,9.4-8.3,9.8c-6.1,0.7-22.2,2.7-41.6-1.9c-17.7-4.2-33.3-12.4-59.2-41c2.1-2.3,5.2-5.4,7.4-7.5c-1-1.3-1.8-2.8-2.4-4.2c-2.5,2.3-5.9,5.7-8.2,8.2c-1.1,1.2-2.2,2.4-3.2,3.6C10.1,85.2,5.6,91.2,1.5,97c-0.9,1.3-1.8,2.6-2.7,3.9c-5.1,7.5-9.4,14.6-12.9,20.4c-0.8,1.4-1.6,2.7-2.4,3.9c-3.1,5.1-5.6,16.4-3.7,21.9c3.3,9.2,16.5,22.6,44,32.4c13.8,4.9,28.9,9.9,42.7,13.3c17.6,4.3,33.2,5.9,41.7,1.4c3.4-1.8,5.5-4.4,6.4-7.9c4.3-16.4,3.9-36.9,2.5-43c1.9-1.1,3.2-2.7,4-4.6c1.7-4.4,1.5-8.6,1.1-11.4c0.1,0,0.3,0,0.4,0c6.1-0.7,10.1-7.8,12.1-12.6c2.3,1,4.6,1.7,6.5,1.6c3.1-0.1,7.1-1.6,8.6-8.2c1-4.4,1.2-9,0.6-13.7c-0.6-5-2.8-10.4-6.4-15.7c5.2-12.9,1.8-23.2-9.6-28.2c-1.8-0.8-3.6-1.3-5.3-1.5c-1-0.1-2-0.2-2.9-0.2c-1,0-1.9,0.1-2.8,0.2c-4.7,0.7-8.4,2.8-10.2,4c-2.3-1.1-4.6-2-7-2.9c-0.7-0.2-1.3-0.5-2-0.7c-0.1-0.1-0.2-0.2-0.2-0.3c-0.5-0.7-1-1.3-1.6-2c-3.6-4.1-8.6-7.2-14.6-8.6c-10-2.4-23.5,5.1-28.2,9.9L63.2,52.3z M127.6,61.5c-0.6-0.5-1.3-1-2-1.4c-0.5-0.4-1-0.7-1.5-1.1c-1.9-1.3-3.8-2.4-5.7-3.5c1.9-1,4.6-1.9,7.7-2c0.8,0,1.6,0,2.5,0.2c0.8,0.1,1.6,0.3,2.5,0.5c0.6,0.2,1.1,0.4,1.7,0.6c6.1,2.7,8.6,6.8,9.1,11.2c1.5,1.2,2.2,3.2,1.8,5.1c-0.3,1.4-1.3,2.5-2.5,3.2c-0.1-0.1-0.1-0.2-0.2-0.3c-2-2.4-4.2-4.8-6.7-7.1c-1.5-1.4-3-2.7-4.6-4C128.9,62.4,128.2,61.9,127.6,61.5z M110.1,185c-0.6,2.1-1.9,3.7-4,4.9c-15.4,8.2-64.5-9.2-80.6-15c-17.5-6.2-37-17.7-41.1-29.5c-1.4-4.1,0.9-13.9,3.3-17.8c0.7-1.2,1.5-2.5,2.4-3.9c3.4-5.6,7.7-12.6,12.6-20C16.6,114.5,47,136,69.8,141.5c0.9,0.2,1.8,0.4,2.6,0.6c19.6,3.8,32.6,4.8,40.3,2.9C114,150.9,113.9,170.2,110.1,185z M116.7,137c-0.3,0.7-0.8,1.3-1.5,1.9c-0.8,0.6-1.9,1.1-3.3,1.5c-6.6,1.7-19.5,0.8-38.6-2.9c-22.2-4.3-53.8-26.7-68-37.5c3.9-5.6,8.2-11.3,12.9-16.7c26,28.7,42.7,37.6,60.5,41.9c0.3,0.1,0.5,0.1,0.8,0.2c16.1,3.8,29.9,3.3,38.1,2.6C117.9,130,118.1,133.4,116.7,137z"/><circle style="fill:#FFFFFF;stroke:#0D5E32;stroke-width:5;stroke-linecap:round;stroke-linejoin:round;stroke-miterlimit:10" cx="114.2" cy="139.1" r="12.8"/><path fill="#0D5E32" d="M118.3,134.8l-2.7,1.7c-0.6,0.3-1,1-0.9,1.7l0.3,7.4l0,0c0,0,0,0.1,0,0.1c0.1,1.3-1.5,2.5-3,2.6s-2.8-0.9-2.8-2.3c-0.1-1.3,1.1-2.5,2.6-2.5c0.5,0,1,0.1,1.4,0.3l-0.5-10c0-0.7,0.4-1.4,1-1.7l2.8-1.4c1.2-0.6,2.6,0.2,2.7,1.5l0.1,0.9C119.3,133.8,119,134.5,118.3,134.8z"/><path fill="#FFFFFF" d="M107.6,64.1c-0.8,7.6-8.6,13-17.7,12.1c-9.6-1-16.9-8.5-16-16.7c1-8.2,9.7-13.4,19.1-11.7C102,49.2,108.4,56.5,107.6,64.1z"/><linearGradient id="f" gradientUnits="userSpaceOnUse" x1="97.1064" y1="52.5382" x2="71.7438" y2="62.9353" gradientTransform="matrix(0.9924 -0.1227 0.1227 0.9924 -5.893 9.2592)"><stop offset="0" style="stop-color:#82C02B"/><stop offset="1" style="stop-color:#269B42"/></linearGradient><path fill="url(#f)" d="M75.1,53.1c0,0,15.9-12.9,25.6-0.9c0,0-22.1-3.4-22.2,16.8C73,61.6,75.1,53.1,75.1,53.1z"/><path style="fill:none;stroke:#0D5E32;stroke-width:4;stroke-linecap:round;stroke-linejoin:round;stroke-miterlimit:10" d="M107.6,64.1c-0.8,7.6-8.6,13-17.7,12.1c-9.6-1-16.9-8.5-16-16.7c1-8.2,9.7-13.4,19.1-11.7C102,49.2,108.4,56.5,107.6,64.1z"/><path fill="#003B17" d="M105.8,66.9c0.1-0.8,0-1.5-0.1-2.3c-0.4-1.8-1.5-3.4-3.1-4.6c-0.8-0.6-1.7-1-2.7-1.3c-4-1.1-8,0.6-9.4,4l-0.3,2.6l0.4,2.8c1,2.2,3.1,4,5.7,4.6c2.5,0.6,5,0.1,6.8-1.2c1.3-0.9,2.2-2.2,2.6-3.8C105.8,67.5,105.8,67.2,105.8,66.9z"/><path fill="#FFFFFF" d="M95.4,66.7c0.8-1.7-0.5-4-3.1-5.3c-2.6-1.3-5.4-1-6.3,0.7c-0.9,1.7,0.6,4.1,3.2,5.3C91.8,68.7,94.6,68.4,95.4,66.7z"/><path fill="#FFFFFF" d="M99.5,62.2c-0.2,0.9-1.2,1.5-2.2,1.2c-1-0.3-1.6-1.3-1.4-2.2c0.2-1,1.2-1.5,2.2-1.2C99.2,60.3,99.8,61.3,99.5,62.2z"/><path fill="#EFEFEF" d="M138.6,64.6c0.6,0.5,0.7,1.4,0.3,1.9c-0.5,0.5-1.4,0.5-2-0.1c-0.6-0.6-0.7-1.4-0.2-1.9C137.1,64,138,64,138.6,64.6z"/><path fill="#FFFFFF" d="M70.9,70.3c0-0.3,0.1-0.7,0.1-1c0.4-3.8,0-7.6-1.2-11.1c-0.3-0.9-0.7-1.9-1.1-2.8c-0.3-0.7-0.7-1.5-1.2-2.2c-0.5-0.8-1-1.6-1.6-2.4c-2.7-3.6-6.4-6.5-10.8-8.3c-1.1-0.5-2.2-0.9-3.4-1.2C46,40,40.2,40.6,35.2,42.7c-7.1,3.1-12.8,9.3-14.9,17.4c-1.4,5.7-0.8,11.5,1.4,16.5c0.7,1.7,1.6,3.2,2.6,4.7c3.4,4.9,8.5,8.6,14.7,10.1c13.8,3.5,27.8-4.9,31.3-18.7C70.6,71.9,70.7,71.1,70.9,70.3z"/><path fill="#0D5E32" d="M71.9,70.4c0-0.3,0.1-0.7,0.1-1c0.4-4,0-7.9-1.2-11.6c-0.3-1-0.7-2-1.1-2.9c-0.4-0.8-0.8-1.5-1.2-2.3c-0.5-0.9-1.1-1.7-1.7-2.5c-2.9-3.8-6.7-6.8-11.3-8.7c-1.2-0.5-2.4-0.9-3.6-1.2c-6-1.5-12-0.9-17.2,1.4c-7.5,3.2-13.4,9.7-15.5,18.2c-1.5,6-0.9,12,1.4,17.2c0.7,1.7,1.7,3.4,2.7,4.9c3.6,5.1,8.9,9,15.4,10.6C53,96.2,67.7,87.4,71.4,73C71.6,72.1,71.7,71.3,71.9,70.4z M42.5,87.7c-6.6-0.8-11.9-4.5-15.2-9.4c-1-1.6-1.9-3.3-2.5-5.1c-1.6-4.8-1.6-10.2,0.7-15.4C29.2,49.2,38.3,44,47.6,45c6.4,0.7,11.7,4.1,15,8.8c1.1,1.5,2,3.2,2.7,5c1.7,4.5,1.9,9.7,0.2,14.7C62.2,83,52.5,89,42.5,87.7z"/><path fill="#FFFFFF" d="M77.8,19.4c0,0-10.4-0.6-17.4,1.5c-6.5,1.9-18.7,12.3-21.2,18.4s-1,10.4-3,12c-2,1.6-7.8,7.3-7.2,13.1s5.8,11.9,11.7,12s13.7-4,14-10.5c0.4-6.5-2.5-11.5-4.5-14.1c-2-2.6,3-12.3,3-12.3s13.3-13.2,17.8-15C75.5,22.8,77.8,19.4,77.8,19.4z"/><circle fill="#0D5E32" cx="41.7" cy="62" r="4.5"/><path style="fill:none;stroke:#0D5E32;stroke-width:5;stroke-linecap:round;stroke-linejoin:round;stroke-miterlimit:10" d="M52.9,23.3C47.3,26.8,43.3,31,40.3,37c-2.3,4.6-3.8,10.9-3.9,12.1c-0.1,1.3-0.8,2.5-1.8,3.3c-3.1,2.4-5.7,6.7-5.7,10.8c0,7.2,6,13,13.5,13s13.5-5.8,13.5-13c0-4.1-1.9-7.1-5-9.5c-1.2-1-2-2.5-1.7-4c5.1-22.4,26.5-30.2,32.2-31.9C69.2,16.5,57.9,20.2,52.9,23.3z"/></svg>