<svg xmlns="http://www.w3.org/2000/svg" viewBox="0 0 256 256"><rect fill="#FFCE00" width="256" height="256"/><path fill="#fff" d="M61.4,96.1c-10.3-0.8-23.9,4-35.5,14.6c-2.4,2.7-7.3,8.8-8.5,17.9c-1.1,8.9,1.5,19.4,7.4,24.3 c0,0,0.1,0.1,0.2,0.1c3.5,2.9,9.1,5.2,15.1,4.5c6.2-0.7,10.2-4.4,12.5-6.5c2.6-2.4,1.9-2.7,4.5-5.3c6.5-6.5,14.9-8.5,18.5-8.9 c0.7-0.1,3.4-0.3,6.7-0.3c1.4,0,2.3,0,2.9,0c6.2-0.2,9.3-0.3,11.7-2.2c3.6-3,4.2-8.6,3.2-12.5c-0.5-2-1.5-3.8-4.6-7.3 c-4.2-4.7-8.6-9.6-16.5-13.5C79,101.1,70.4,96.8,61.4,96.1z M139.8,54.5c-3.8,3-13.1,10.1-15.9,23.1c-0.4,1.8-2.8,14,4.1,25.4c1.9,3.1,4.9,7.9,10.8,10.4 c6.6,2.8,12.9,1,15.6,0.1c1.4-0.4,2.6-0.9,3.5-1.4c5.1-2.7,8.3-5.5,9.3-6.4c6.4-6,23-11.5,35.7-8.6c1,0.2,5.2,1.3,10.8,1.9 c6.9,0.8,8.9,0.1,10.3-0.7c3.7-2.1,4.7-6.5,5-7.7c1.9-7.8-3.3-15.2-7-20.4c-9.4-13.1-21.7-18.9-24.6-20.3 c-15.3-6.9-28.9-5.6-31.8-5.3C160.3,45.4,149.9,46.7,139.8,54.5z"/><path fill="#42210B" d="M29.8,114.6c-9.5,5.6-8.7,18.4-8.5,20.5c0.2,3.2,0.8,11.6,7.8,15.9c7,4.4,14.8,1.1,15.5,0.8 c8.5-3.7,10.4-12.9,10.8-14.6c1.5-7.4-0.2-18.7-9-23.1C41.1,111.5,34.7,111.7,29.8,114.6z M142.8,60.8c-9.1,2.8-12.3,11.1-12.6,12.1c-1.1,2.7-2.6,7.4-2.5,13.4c0.1,6.7,2.2,11.8,3.5,14.5 c0.8,1.3,4.7,7.3,12.3,9.1c8.4,2,15-2.5,16.5-3.5c8.8-6,11.6-17.6,9.9-26.8c-1.5-8-6.3-13.2-8.5-15.3 C160.7,63.9,152.7,57.6,142.8,60.8z M142.6,216.9h-0.1c-4.7-0.2-9.4-1.1-13.8-2.9c-5.4-2.1-10.2-5.3-14.2-9.5c-1.5-1.6-1.5-4.1,0.1-5.7 c1.6-1.5,4.1-1.5,5.7,0.1c3.2,3.3,7.2,6,11.5,7.6c3.5,1.4,7.3,2.2,11.1,2.3c2.2,0.1,3.9,1.9,3.9,4.1 C146.6,215.2,144.8,216.9,142.6,216.9z M168,212.7c-1.6,0-3.1-1-3.7-2.5c-0.8-2.1,0.2-4.4,2.3-5.2c5.4-2.1,13.3-6.4,19.9-14.4 c7.4-9,10-18.5,10.8-24.9c0.3-2.2,2.3-3.7,4.5-3.4s3.7,2.3,3.4,4.5c-1,7.5-3.9,18.6-12.6,29c-7.8,9.4-16.9,14.3-23.2,16.8 C169,212.6,168.5,212.7,168,212.7z"/></svg>