<svg version="1.1" xmlns="http://www.w3.org/2000/svg" viewBox="0 0 1024 1024"><linearGradient id="a" gradientUnits="userSpaceOnUse" x1="512" y1="-2.298748e-08" x2="512" y2="1024" gradientTransform="matrix(1 0 0 -1 0 1024)"><stop offset="0" style="stop-color:#FCFEFF"/><stop offset="1" style="stop-color:#C9F9FF"/></linearGradient><rect fill="url(#a)" width="1024" height="1024"/><linearGradient id="b" gradientUnits="userSpaceOnUse" x1="541.8397" y1="-103.7261" x2="412.6933" y2="628.7002" gradientTransform="matrix(1 0 0 -1 0 1024)"><stop offset="0" style="stop-color:#44B5E4"/><stop offset="1" style="stop-color:#80D8FF"/></linearGradient><path fill="url(#b)" d="M-83,1024h1213.1c-111.8-151.7-279.1-259.9-472-294.7c84.8-33.9,143.1-111,155.4-215.5c0.3-3-2.1-5.5-5.1-5.4c-181,11-271.6,123.8-284.7,164.6c-6.8-72.7-91.4-238-322.8-240.3c-2.7,0-4.9,2.2-4.9,4.9c2.6,113.6,93.9,241.8,205.3,289.6C203.3,759.5,31.2,869.1-83,1024z"/></svg>