<svg version="1.1" xmlns="http://www.w3.org/2000/svg" viewBox="0 0 64 64"><rect fill="#F8F8F8" width="64" height="64"/><path fill="#C4C7CC" d="M32.4,10.2c-12,0-21.7,9.7-21.7,21.7s9.7,21.7,21.7,21.7S54.2,44,54.2,32C54.2,20,44.4,10.2,32.4,10.2z M32.4,46.5c-8,0-14.5-6.5-14.5-14.5s6.5-14.5,14.5-14.5S46.9,24,46.9,32C46.9,40,40.4,46.5,32.4,46.5z"/><path fill="#B9C11B" d="M32.4,24.7c-4,0-7.3,3.3-7.3,7.3s3.3,7.3,7.3,7.3s7.3-3.3,7.3-7.3C39.7,28,36.4,24.7,32.4,24.7z M36.9,34.2c-1.3,0-2.3-1-2.3-2.3c0-1.3,1-2.3,2.3-2.3s2.3,1,2.3,2.3C39.1,33.2,38.1,34.2,36.9,34.2z"/><circle fill="#BF1D1D" cx="52.8" cy="52.8" r="2.5"/></svg>